<?xml version="1.0" encoding="UTF-8" standalone="no"?>
<!-- Created with Inkscape (http://www.inkscape.org/) -->

<svg
   width="34.027786mm"
   height="34.027786mm"
   viewBox="0 0 34.027786 34.027786"
   version="1.1"
   id="svg1"
   xml:space="preserve"
   inkscape:version="1.3.2 (091e20e, 2023-11-25)"
   sodipodi:docname="favicon.svg"
   xmlns:inkscape="http://www.inkscape.org/namespaces/inkscape"
   xmlns:sodipodi="http://sodipodi.sourceforge.net/DTD/sodipodi-0.dtd"
   xmlns="http://www.w3.org/2000/svg"
   xmlns:svg="http://www.w3.org/2000/svg"><sodipodi:namedview
     id="namedview1"
     pagecolor="#ffffff"
     bordercolor="#000000"
     borderopacity="0.25"
     inkscape:showpageshadow="2"
     inkscape:pageopacity="0.0"
     inkscape:pagecheckerboard="0"
     inkscape:deskcolor="#d1d1d1"
     inkscape:document-units="mm"
     inkscape:zoom="0.76320559"
     inkscape:cx="-72.064462"
     inkscape:cy="44.54894"
     inkscape:window-width="1440"
     inkscape:window-height="763"
     inkscape:window-x="0"
     inkscape:window-y="25"
     inkscape:window-maximized="1"
     inkscape:current-layer="layer1" /><defs
     id="defs1" /><g
     inkscape:label="Ebene 1"
     inkscape:groupmode="layer"
     id="layer1"
     transform="translate(-127.96953,-131.62283)"><rect
       style="fill:#00cbff;fill-opacity:1;stroke-width:0.264583;stroke-linecap:round;-inkscape-stroke:none"
       id="rect1"
       width="34.027786"
       height="34.027786"
       x="127.96953"
       y="131.62283"
       ry="5.6365047"
       rx="5.6365047" /><path
       style="fill:#000000;fill-opacity:1;stroke-width:1"
       d="m 154.85379,158.95889 c -0.0129,-0.0208 9.8e-4,-0.13369 0.0311,-0.2509 l 0.0546,-0.21308 3.40638,0.004 c 1.87351,0.002 3.4218,0.0194 3.44065,0.0382 0.0189,0.0189 0.0285,0.12522 0.0215,0.23637 l -0.0129,0.2021 -3.45897,0.0112 c -2.05894,0.006 -3.46845,-0.005 -3.48236,-0.0273 z m -25.74428,-1.22903 c -0.0268,-0.0268 0.12733,-0.27225 0.18672,-0.29743 0.0179,-0.007 0.0325,-0.0358 0.0325,-0.0628 0,-0.0269 0.0835,-0.16025 0.18556,-0.29621 0.10209,-0.13595 0.18576,-0.26888 0.186,-0.2954 2.3e-4,-0.0265 0.0154,-0.0544 0.0336,-0.062 0.037,-0.0153 0.38247,-0.71544 0.47768,-0.96795 0.18288,-0.48498 0.29995,-1.02627 0.38365,-1.77375 0.0417,-0.37282 -0.17566,-1.56312 -0.3548,-1.94262 -0.0867,-0.18363 -0.25698,-0.62389 -0.2638,-0.68198 -0.004,-0.0341 -0.0187,-0.0713 -0.0326,-0.0827 -0.0398,-0.0325 -0.28616,-0.54365 -0.29734,-0.6169 -0.005,-0.0362 -0.0422,-0.11164 -0.0814,-0.16765 -0.0392,-0.0559 -0.0714,-0.12094 -0.0716,-0.14427 -1.4e-4,-0.0233 -0.0279,-0.0955 -0.0618,-0.16045 -0.0339,-0.0649 -0.0495,-0.13751 -0.0347,-0.16138 0.0156,-0.0253 0.007,-0.0311 -0.0208,-0.0139 -0.0263,0.0162 -0.0478,0.009 -0.0478,-0.0165 0,-0.0253 -0.0362,-0.1257 -0.0806,-0.22306 -0.0443,-0.0974 -0.0898,-0.22188 -0.10097,-0.27673 -0.0112,-0.0548 -0.0594,-0.19965 -0.10717,-0.32182 -0.0478,-0.12217 -0.0775,-0.23146 -0.066,-0.24289 0.0112,-0.0112 -0.007,-0.0743 -0.0407,-0.13958 -0.0604,-0.11697 -0.11015,-0.33124 -0.16147,-0.69738 -0.0144,-0.10233 -0.0437,-0.29759 -0.065,-0.43398 -0.0594,-0.3788 -0.0454,-1.39751 0.0254,-1.85995 0.0349,-0.22733 0.0639,-0.44123 0.0646,-0.47532 0.004,-0.16419 0.13422,-0.74398 0.16777,-0.74398 0.021,0 0.028,-0.0163 0.0157,-0.0361 -0.0294,-0.0475 0.0692,-0.45988 0.1099,-0.45988 0.0174,0 0.0315,-0.0363 0.0315,-0.0807 0,-0.0444 0.021,-0.13274 0.0465,-0.19632 0.0256,-0.0636 0.0615,-0.15281 0.0799,-0.19827 0.0184,-0.0455 0.0571,-0.15242 0.0858,-0.23767 0.0288,-0.0852 0.0672,-0.15499 0.0853,-0.15499 0.0181,0 0.033,-0.0329 0.033,-0.0731 0,-0.0402 0.0471,-0.14249 0.10481,-0.22734 0.0577,-0.0848 0.0944,-0.15425 0.0817,-0.15425 -0.0303,0 0.2437,-0.50805 0.39669,-0.73572 0.0657,-0.0977 0.11957,-0.19074 0.11982,-0.20666 2.3e-4,-0.0159 0.0626,-0.0894 0.13872,-0.16325 l 0.13829,-0.13433 1.23557,4.9e-4 c 0.69128,3.5e-4 1.2624,0.0176 1.29649,0.0392 0.0513,0.0324 0.0448,0.0563 -0.0413,0.15098 -0.21669,0.23829 -0.26894,0.2841 -0.30892,0.27078 -0.0227,-0.007 -0.0272,4.3e-4 -0.01,0.0177 0.0174,0.0174 -0.0131,0.0794 -0.0678,0.13778 -0.0547,0.0584 -0.23126,0.28254 -0.39232,0.49806 -0.26038,0.34846 -0.34694,0.48764 -0.57182,0.91961 -0.0323,0.062 -0.0762,0.12355 -0.0975,0.13677 -0.0213,0.0131 -0.0387,0.0502 -0.0387,0.0825 0,0.0321 -0.0558,0.18036 -0.12404,0.32925 -0.0682,0.14891 -0.12404,0.29816 -0.12404,0.33169 0,0.0335 -0.0148,0.0609 -0.0329,0.0609 -0.018,0 -0.0577,0.11201 -0.0881,0.24886 -0.0304,0.13688 -0.0714,0.25887 -0.0912,0.27111 -0.0197,0.0124 -0.036,0.0769 -0.036,0.14379 0,0.0669 -0.018,0.12155 -0.0401,0.12155 -0.022,0 -0.0297,0.0272 -0.0169,0.0603 0.0128,0.0332 0.001,0.15873 -0.0253,0.279 -0.0605,0.27325 -0.12923,0.93036 -0.12883,1.2313 7.2e-4,0.53566 0.14302,1.41983 0.27711,1.72152 0.0319,0.0716 0.0581,0.15534 0.0582,0.186 1.4e-4,0.0306 0.0252,0.10345 0.0556,0.16183 0.0509,0.0976 0.10556,0.26342 0.13385,0.40644 0.006,0.0319 0.0286,0.069 0.0497,0.0826 0.0211,0.0136 0.064,0.0992 0.0955,0.19013 0.0315,0.0909 0.0671,0.17463 0.079,0.186 0.0504,0.0479 0.12255,0.25722 0.10084,0.29242 -0.013,0.0211 -0.006,0.0382 0.0154,0.0382 0.0388,0 0.0817,0.0803 0.25376,0.47532 0.0495,0.11362 0.11659,0.26527 0.14903,0.33691 0.0325,0.0716 0.059,0.1424 0.059,0.15726 0,0.0149 0.0358,0.10568 0.0796,0.20184 0.0438,0.0961 0.0929,0.22999 0.10903,0.2974 0.0161,0.0673 0.0433,0.14116 0.0603,0.16389 0.0297,0.0398 0.0922,0.28556 0.0841,0.3304 -0.002,0.0124 0.0248,0.0774 0.0599,0.14536 0.0351,0.068 0.0561,0.12354 0.0465,0.12354 -0.01,0 -4.7e-4,0.0697 0.0202,0.155 0.0207,0.0852 0.0468,0.25729 0.0579,0.38232 0.0112,0.12503 0.0368,0.37279 0.0572,0.55056 0.0207,0.18154 0.0216,0.44522 0.002,0.60152 -0.0192,0.15306 -0.0381,0.361 -0.0419,0.46208 -0.006,0.15774 -0.0512,0.51487 -0.10171,0.80378 -0.0127,0.0724 -0.12441,0.54814 -0.15533,0.66131 -0.006,0.0227 -0.0231,0.06 -0.0373,0.083 -0.0144,0.0229 -0.0391,0.11114 -0.0551,0.19597 -0.0159,0.0848 -0.0438,0.14515 -0.0619,0.13396 -0.0181,-0.0112 -0.0238,0.0148 -0.0125,0.0577 0.0112,0.0429 1.8e-4,0.0905 -0.0246,0.1058 -0.0247,0.0153 -0.0449,0.0581 -0.0449,0.0949 0,0.037 -0.0396,0.1521 -0.0881,0.25589 -0.0484,0.10382 -0.13549,0.29101 -0.19349,0.41604 -0.0581,0.12503 -0.14055,0.27848 -0.18345,0.34099 l -0.078,0.11362 h -1.20961 c -0.66528,0 -1.22144,-0.0124 -1.23593,-0.0263 z m 8.05166,-0.002 c -0.46032,-0.0619 -0.95815,-0.29924 -1.28005,-0.61021 -0.20577,-0.19877 -0.42319,-0.52673 -0.44826,-0.67615 -0.006,-0.0383 -0.0334,-0.10916 -0.06,-0.15743 -0.0897,-0.16303 -0.12906,-0.44688 -0.15687,-1.13154 -0.0153,-0.37509 -0.036,-0.69593 -0.046,-0.71299 -0.01,-0.0171 -0.34763,-0.031 -0.75011,-0.031 h -0.73179 l -0.0716,-0.16531 c -0.0393,-0.0909 -0.0903,-0.16533 -0.11312,-0.16533 -0.0228,0 -0.0414,-0.0192 -0.0414,-0.0427 0,-0.0234 -0.0837,-0.16971 -0.18598,-0.325 -0.10233,-0.15528 -0.186,-0.30192 -0.186,-0.32587 0,-0.0239 -0.014,-0.0497 -0.031,-0.0573 -0.0408,-0.0181 -0.21673,-0.26982 -0.21791,-0.31176 -4.8e-4,-0.018 -0.0373,-0.0791 -0.0817,-0.13601 -0.16326,-0.20871 -0.17493,-0.20666 1.17797,-0.20666 h 1.26063 v -5.53024 c 0,-4.2462 0.0112,-5.54176 0.0496,-5.57984 0.0375,-0.0375 0.673,-0.0496 2.60689,-0.0496 2.1777,0 2.56616,0.009 2.61715,0.0599 0.0493,0.0492 0.0579,0.21586 0.0487,0.94031 l -0.0112,0.88043 -1.63262,0.0207 -1.63262,0.0206 -0.01,4.6184 -0.01,4.6184 1.64313,0.0112 1.64312,0.0112 v 0.8473 0.8473 l -1.6326,0.0206 -1.63263,0.0206 -0.0136,0.33067 c -0.0177,0.4301 0.0559,0.85316 0.17194,0.98679 l 0.0897,0.10333 1.48734,0.004 c 0.81805,0.002 1.50195,0.0186 1.51979,0.0365 0.0179,0.0179 0.0274,0.44032 0.0213,0.93884 l -0.0112,0.90642 -1.61195,0.005 c -0.88657,0.002 -1.66775,-0.002 -1.73595,-0.0124 z m 3.98855,-0.0954 c 0,-0.0682 0.0197,-0.12404 0.0438,-0.12404 0.0241,0 0.0347,-0.0145 0.0238,-0.0323 -0.0208,-0.0336 0.39376,-1.69692 0.44263,-1.776 0.0154,-0.0248 0.0355,-0.0977 0.0447,-0.1621 0.009,-0.0643 0.0356,-0.17738 0.0587,-0.25126 0.0231,-0.0739 0.0332,-0.13432 0.0227,-0.13432 -0.0112,0 0.001,-0.0391 0.0272,-0.0867 0.0255,-0.0477 0.0542,-0.14979 0.0638,-0.22688 0.01,-0.0771 0.0432,-0.21941 0.0748,-0.31627 0.0315,-0.0969 0.0804,-0.27842 0.10841,-0.40345 0.028,-0.12503 0.062,-0.24593 0.0754,-0.26865 0.0134,-0.0227 0.0278,-0.0639 0.032,-0.0915 0.0263,-0.17275 0.15848,-0.67314 0.17792,-0.67319 0.0129,-4e-5 0.0288,-0.0768 0.0352,-0.17064 0.006,-0.0938 0.0306,-0.20589 0.0537,-0.24903 0.0231,-0.0432 0.077,-0.2314 0.11995,-0.41835 0.1218,-0.53114 0.23743,-0.9703 0.26898,-1.02133 0.0159,-0.0257 0.0342,-0.0874 0.0408,-0.13723 0.0124,-0.092 0.0298,-0.16308 0.18554,-0.75196 0.0481,-0.18185 0.10593,-0.40283 0.12844,-0.49104 0.0438,-0.17151 0.0211,-0.50378 -0.0398,-0.57917 -0.0202,-0.0252 -0.0594,-0.15735 -0.0871,-0.29375 -0.0275,-0.13639 -0.0649,-0.28519 -0.083,-0.33065 -0.018,-0.0454 -0.0553,-0.19427 -0.0827,-0.33066 -0.0275,-0.13639 -0.0657,-0.28519 -0.085,-0.33066 -0.0461,-0.10891 -0.37614,-1.42285 -0.38414,-1.52929 -0.004,-0.0455 -0.0159,-0.0919 -0.0277,-0.10333 -0.0237,-0.0228 -0.0975,-0.27132 -0.18431,-0.61998 -0.0311,-0.12503 -0.0857,-0.32963 -0.1213,-0.45466 -0.0356,-0.12503 -0.0649,-0.26942 -0.0651,-0.32088 -2.8e-4,-0.0515 -0.0181,-0.12585 -0.0397,-0.16532 -0.0216,-0.0396 -0.0696,-0.19267 -0.10667,-0.34044 -0.0371,-0.14776 -0.0866,-0.34305 -0.11015,-0.43399 -0.0236,-0.0909 -0.0486,-0.21071 -0.0559,-0.26619 -0.007,-0.0555 -0.031,-0.13917 -0.0527,-0.18598 -0.0635,-0.13663 -0.13902,-0.44255 -0.11511,-0.4664 0.0124,-0.0124 -0.002,-0.0707 -0.0334,-0.1303 -0.0304,-0.0597 -0.0858,-0.24793 -0.12329,-0.41842 -0.0373,-0.1705 -0.0841,-0.34719 -0.10382,-0.39265 -0.0619,-0.14265 -0.12685,-0.51198 -0.10159,-0.57774 0.0206,-0.0537 0.15759,-0.0628 0.93937,-0.0623 0.50337,3.6e-4 0.93871,0.0156 0.96742,0.0337 0.062,0.0395 0.22872,0.61497 0.19421,0.67082 -0.0131,0.0213 -0.002,0.0387 0.0233,0.0387 0.0259,0 0.0394,0.0233 0.03,0.0517 -0.01,0.0284 0.0155,0.12606 0.0556,0.21699 0.0401,0.0909 0.0832,0.25512 0.096,0.36485 0.0128,0.10977 0.0368,0.22133 0.0535,0.248 0.0166,0.0267 0.035,0.0671 0.0407,0.0898 0.006,0.0227 0.0381,0.14364 0.0721,0.26867 0.0608,0.22411 0.19505,0.73122 0.27901,1.05396 0.0237,0.0909 0.0484,0.20612 0.0551,0.25597 0.006,0.0499 0.0257,0.11263 0.0423,0.13949 0.0166,0.0268 0.0636,0.19067 0.10444,0.36402 0.0408,0.17334 0.10407,0.42269 0.14066,0.55414 0.0366,0.13143 0.0561,0.25569 0.0434,0.27613 -0.0127,0.0205 -0.006,0.0473 0.0134,0.0597 0.02,0.0124 0.0775,-0.13977 0.12786,-0.33812 0.0504,-0.19837 0.11734,-0.45365 0.14885,-0.56731 0.0315,-0.11361 0.0688,-0.26245 0.083,-0.33066 0.014,-0.0682 0.0361,-0.15189 0.049,-0.18599 0.0389,-0.10283 0.0478,-0.13482 0.10804,-0.39266 0.0319,-0.13639 0.0964,-0.38748 0.14318,-0.55798 0.0469,-0.17049 0.0944,-0.36083 0.10568,-0.42297 0.0112,-0.0622 0.0327,-0.13295 0.0479,-0.15736 0.015,-0.0244 0.0329,-0.0852 0.0394,-0.13501 0.006,-0.0499 0.0316,-0.16504 0.0556,-0.25597 0.0239,-0.0909 0.0733,-0.29552 0.10977,-0.45465 0.0365,-0.15913 0.0817,-0.31794 0.10072,-0.35291 0.019,-0.035 0.0484,-0.14625 0.0655,-0.24728 0.0171,-0.10109 0.0613,-0.20668 0.0981,-0.23476 0.0706,-0.0537 1.75031,-0.0793 1.8823,-0.0285 0.0743,0.0285 0.0852,0.14985 0.0239,0.26433 -0.0228,0.0425 -0.0507,0.15195 -0.0623,0.24316 -0.0112,0.0912 -0.0388,0.2133 -0.0609,0.27129 -0.0221,0.0581 -0.0308,0.10543 -0.0193,0.10543 0.0112,0 -0.007,0.0535 -0.0407,0.1187 -0.0337,0.0654 -0.0536,0.12663 -0.0439,0.13626 0.01,0.01 -0.0112,0.11895 -0.0455,0.24289 -0.0346,0.12392 -0.0899,0.33701 -0.12292,0.47341 -0.0329,0.13639 -0.0767,0.28518 -0.0971,0.33066 -0.0205,0.0455 -0.0577,0.18495 -0.0826,0.30998 -0.0249,0.12503 -0.0925,0.40403 -0.15016,0.61998 -0.0577,0.21596 -0.14361,0.55075 -0.19104,0.74398 -0.0475,0.19323 -0.10246,0.35757 -0.12243,0.36519 -0.0198,0.007 -0.0264,0.0295 -0.0146,0.0487 0.0288,0.0465 -0.0576,0.40459 -0.13183,0.54713 -0.0326,0.0625 -0.0497,0.12916 -0.0381,0.14799 0.0112,0.0189 -0.006,0.13504 -0.0409,0.25824 -0.16057,0.57941 -0.18214,0.66734 -0.18214,0.74268 0,0.0444 -0.015,0.0806 -0.0335,0.0806 -0.0184,0 -0.0553,0.11623 -0.082,0.25832 -0.0267,0.14209 -0.0553,0.27693 -0.0636,0.29967 -0.009,0.0227 -0.0252,0.0692 -0.0376,0.10332 -0.0124,0.0341 -0.0453,0.1736 -0.0729,0.31 -0.0278,0.13639 -0.0688,0.28285 -0.0913,0.32546 -0.0224,0.0426 -0.0455,0.11697 -0.0512,0.16533 -0.0243,0.20548 -0.12106,0.56317 -0.15221,0.56317 -0.0186,0 -0.0133,0.0511 0.0112,0.11362 0.025,0.0625 0.0602,0.15087 0.0779,0.19633 0.0456,0.11672 0.15995,0.5783 0.20983,0.8473 0.0232,0.12503 0.0594,0.26454 0.0804,0.31 0.0211,0.0455 0.0653,0.19426 0.0981,0.33066 0.0329,0.13639 0.0882,0.34943 0.12292,0.47339 0.0346,0.12404 0.0552,0.23328 0.0455,0.24291 -0.01,0.01 0.01,0.0709 0.0439,0.13624 0.0337,0.0654 0.0525,0.1187 0.0417,0.1187 -0.0112,0 0.006,0.0866 0.0381,0.19237 0.0319,0.10581 0.0559,0.20345 0.0535,0.217 -0.002,0.0135 0.007,0.0525 0.0221,0.0866 0.0146,0.0341 0.0633,0.2108 0.10803,0.39265 0.11834,0.47949 0.40091,1.57494 0.47404,1.83737 0.0346,0.12403 0.0548,0.23336 0.0451,0.24308 -0.01,0.01 10e-4,0.0537 0.0251,0.0976 0.0464,0.0867 0.0527,0.10779 0.1337,0.44654 0.0299,0.12503 0.0645,0.25522 0.0769,0.28932 0.0124,0.0341 0.0455,0.1643 0.0733,0.28933 0.0279,0.12503 0.0767,0.30657 0.10816,0.40345 0.0316,0.0969 0.0652,0.23918 0.0748,0.31627 0.01,0.0771 0.0376,0.17797 0.0623,0.22416 0.0247,0.0461 0.0449,0.14101 0.0449,0.21071 v 0.1267 h -0.97231 -0.97233 l -0.0402,-0.1058 c -0.0221,-0.0582 -0.0487,-0.16514 -0.0593,-0.23766 -0.01,-0.0726 -0.0475,-0.21054 -0.0822,-0.30667 -0.0347,-0.0961 -0.0711,-0.23848 -0.0807,-0.31629 -0.01,-0.0778 -0.0384,-0.1805 -0.064,-0.22819 -0.0255,-0.0476 -0.0377,-0.0867 -0.0272,-0.0867 0.0112,0 3.9e-4,-0.0604 -0.0227,-0.13434 -0.0231,-0.0739 -0.0496,-0.18815 -0.059,-0.25395 -0.01,-0.0657 -0.0331,-0.14019 -0.0528,-0.16533 -0.0196,-0.0252 -0.0491,-0.12007 -0.0655,-0.21103 -0.0164,-0.0909 -0.035,-0.19323 -0.0413,-0.22732 -0.006,-0.0341 -0.0234,-0.0945 -0.0378,-0.13434 -0.0552,-0.15129 -0.0773,-0.22793 -0.17305,-0.60337 -0.0542,-0.2125 -0.0963,-0.39851 -0.0934,-0.41332 0.002,-0.0149 -0.006,-0.0548 -0.0208,-0.0889 -0.0144,-0.0341 -0.0831,-0.27417 -0.15281,-0.53347 -0.17348,-0.64553 -0.18218,-0.65451 -0.27071,-0.279 -0.0411,0.17407 -0.0892,0.31649 -0.10704,0.31649 -0.0179,0 -0.0227,0.0254 -0.0112,0.0564 0.0124,0.0311 -0.0189,0.17522 -0.0683,0.32033 -0.0495,0.14513 -0.0935,0.29175 -0.0977,0.32585 -0.0293,0.23493 -0.0785,0.45466 -0.10184,0.45466 -0.0153,0 -0.0523,0.13484 -0.0825,0.29965 -0.0301,0.16483 -0.0683,0.31826 -0.0848,0.341 -0.0165,0.0227 -0.0538,0.15292 -0.0829,0.28932 -0.029,0.1364 -0.0641,0.26659 -0.0779,0.28933 -0.0138,0.0227 -0.0308,0.0785 -0.0377,0.12404 -0.0112,0.0749 -0.15264,0.64006 -0.27103,1.08496 -0.0257,0.0966 -0.0592,0.17567 -0.0744,0.17567 -0.0152,0 -0.0268,0.0232 -0.0258,0.0517 0.007,0.20703 0.0624,0.19631 -1.00308,0.19631 h -0.99197 z m 10.09763,0.01 c -0.0269,-0.0625 -0.0688,-0.23457 -0.0931,-0.38233 -0.0243,-0.14776 -0.0618,-0.33376 -0.0831,-0.41333 -0.0419,-0.15569 -0.15984,-0.73051 -0.18964,-0.92478 -0.01,-0.0654 -0.0381,-0.19277 -0.0625,-0.28317 -0.0243,-0.0904 -0.035,-0.17369 -0.0236,-0.18508 0.0112,-0.0112 0.001,-0.07 -0.0217,-0.13017 -0.0233,-0.0602 -0.0504,-0.15592 -0.0599,-0.21274 -0.01,-0.0568 -0.0378,-0.19269 -0.0629,-0.30189 -0.025,-0.10916 -0.0347,-0.20931 -0.0216,-0.22243 0.0132,-0.0131 0.005,-0.0585 -0.0174,-0.10097 -0.0389,-0.0728 -0.18206,-0.71823 -0.30966,-1.39659 -0.0318,-0.16859 -0.0757,-0.36389 -0.0977,-0.43399 -0.022,-0.0701 -0.0516,-0.21115 -0.0656,-0.31344 -0.014,-0.10233 -0.0295,-0.21389 -0.0344,-0.24799 -0.005,-0.0341 -0.0202,-0.0806 -0.034,-0.10332 -0.0253,-0.0418 -0.0621,-0.24085 -0.098,-0.52993 -0.0112,-0.0868 -0.0355,-0.18917 -0.0551,-0.22733 -0.0315,-0.0616 -0.0485,-0.15202 -0.11201,-0.59791 -0.009,-0.0634 -0.0367,-0.15331 -0.0617,-0.19988 -0.0249,-0.0465 -0.0366,-0.0934 -0.0258,-0.10406 0.0112,-0.0112 -0.007,-0.12268 -0.0404,-0.2489 -0.033,-0.12618 -0.0507,-0.23862 -0.0395,-0.24989 0.0112,-0.0112 0.001,-0.0697 -0.0219,-0.12989 -0.0233,-0.0602 -0.0506,-0.15592 -0.0604,-0.21275 -0.0384,-0.22158 -0.10928,-0.56942 -0.16564,-0.81297 -0.0325,-0.14024 -0.0672,-0.32623 -0.0773,-0.41332 -0.01,-0.0871 -0.0474,-0.26565 -0.0831,-0.39684 -0.0357,-0.13117 -0.0733,-0.30786 -0.0836,-0.39265 -0.01,-0.0847 -0.0549,-0.29939 -0.0992,-0.4769 -0.0443,-0.17751 -0.088,-0.38211 -0.097,-0.45465 -0.009,-0.0726 -0.0275,-0.15981 -0.0412,-0.19391 -0.0433,-0.10878 -0.11523,-0.50732 -0.0953,-0.52736 0.0112,-0.0112 -0.006,-0.087 -0.0373,-0.16964 -0.0492,-0.1306 -0.10394,-0.40383 -0.12708,-0.63424 -0.004,-0.0388 -0.0268,-0.12255 -0.0507,-0.18601 -0.0427,-0.11262 -0.0913,-0.37009 -0.11387,-0.60363 -0.006,-0.0639 -0.0298,-0.16624 -0.0523,-0.22732 -0.0226,-0.061 -0.0636,-0.25056 -0.0912,-0.42105 -0.0275,-0.1705 -0.0657,-0.3658 -0.085,-0.434 -0.0192,-0.0682 -0.0633,-0.27278 -0.0979,-0.45465 -0.0347,-0.18186 -0.10134,-0.50735 -0.14818,-0.72331 -0.19446,-0.89716 -0.25863,-1.22625 -0.26315,-1.34965 -0.002,-0.0717 -0.0168,-0.12305 -0.0313,-0.11399 -0.0146,0.009 -0.0461,-0.0997 -0.0702,-0.24165 -0.0241,-0.14189 -0.0639,-0.36027 -0.0886,-0.4853 -0.0246,-0.12503 -0.0547,-0.30128 -0.0669,-0.39167 -0.0124,-0.0904 -0.0408,-0.187 -0.0639,-0.21471 -0.0231,-0.0278 -0.0357,-0.0933 -0.0283,-0.14567 l 0.0135,-0.0953 0.88864,-0.0125 c 0.48876,-0.007 0.98467,-9.7e-4 1.10205,0.0129 l 0.21341,0.0253 0.0611,0.29713 c 0.0337,0.16342 0.13023,0.65982 0.21458,1.10311 0.0844,0.44329 0.19667,1.02917 0.24957,1.30197 0.11709,0.60394 0.42001,2.1925 0.44528,2.33526 0.01,0.0568 0.0485,0.25214 0.0853,0.43399 0.16957,0.83678 0.24566,1.22479 0.4214,2.14927 0.10369,0.54559 0.22454,1.17159 0.26851,1.39112 0.0439,0.21954 0.08,0.44118 0.08,0.49255 0,0.187 0.0375,0.0496 0.0575,-0.21097 0.0112,-0.14707 0.0494,-0.3604 0.0844,-0.47406 0.0351,-0.11362 0.0646,-0.27177 0.0657,-0.35132 9.7e-4,-0.0795 0.031,-0.25627 0.0666,-0.39266 0.0356,-0.13639 0.0727,-0.3131 0.0824,-0.39265 0.0301,-0.2472 0.10878,-0.63768 0.14133,-0.70266 0.0171,-0.0341 0.0421,-0.18289 0.0556,-0.33066 0.0134,-0.14775 0.0525,-0.35996 0.0867,-0.47155 0.0342,-0.11164 0.0623,-0.26193 0.0623,-0.3341 0,-0.0722 0.0124,-0.1435 0.0273,-0.15852 0.015,-0.015 0.0316,-0.0786 0.037,-0.14123 0.0141,-0.16569 0.17273,-0.998 0.22328,-1.17144 0.0237,-0.0815 0.0516,-0.24861 0.0618,-0.37131 0.01,-0.12267 0.0382,-0.22961 0.0621,-0.23761 0.0239,-0.007 0.0341,-0.03 0.0225,-0.0489 -0.0112,-0.0188 0.005,-0.14634 0.0368,-0.28318 0.032,-0.13685 0.0502,-0.25659 0.0408,-0.26612 -0.0194,-0.0192 0.0863,-0.49729 0.12305,-0.5566 0.0129,-0.0207 0.0269,-0.11051 0.0311,-0.19951 0.005,-0.0889 0.0349,-0.27337 0.068,-0.40977 0.0331,-0.1364 0.0681,-0.31309 0.0778,-0.39266 0.0301,-0.24682 0.10865,-0.63763 0.14129,-0.70264 0.0171,-0.0341 0.0423,-0.1922 0.0562,-0.35132 0.0138,-0.15913 0.0424,-0.29519 0.0637,-0.30233 0.0213,-0.007 0.029,-0.0382 0.0171,-0.0691 -0.0124,-0.0309 -9.7e-4,-0.0948 0.0244,-0.142 0.0435,-0.0813 0.0803,-0.086 0.68516,-0.086 h 0.6392 v 1.23997 1.23997 l 0.17567,4.9e-4 c 0.28579,9.6e-4 0.30286,0.028 0.22596,0.35715 -0.0364,0.15558 -0.0891,0.39446 -0.11709,0.53085 -0.028,0.1364 -0.0553,0.26659 -0.0604,0.28933 -0.11002,0.48608 -0.3118,1.50203 -0.41055,2.06661 -0.0357,0.20459 -0.0832,0.41555 -0.10544,0.46882 -0.0222,0.0532 -0.049,0.16486 -0.0595,0.24799 -0.01,0.0831 -0.0387,0.24416 -0.0628,0.35782 -0.0239,0.11362 -0.0716,0.35546 -0.10556,0.53732 -0.0341,0.18187 -0.079,0.38646 -0.0999,0.45465 -0.0208,0.0682 -0.0682,0.2821 -0.1053,0.47533 -0.0691,0.36024 -0.18707,0.92911 -0.29144,1.40529 -0.0324,0.14776 -0.0947,0.45466 -0.13842,0.68198 -0.10245,0.53241 -0.10493,0.54484 -0.20516,1.0333 -0.0466,0.22733 -0.11386,0.56212 -0.14922,0.74399 -0.0355,0.18186 -0.0841,0.39269 -0.10828,0.46851 -0.0242,0.0758 -0.0526,0.21533 -0.0633,0.31 -0.0112,0.0946 -0.0382,0.24652 -0.0613,0.33746 -0.0231,0.0909 -0.0637,0.28315 -0.0904,0.42715 -0.0265,0.14401 -0.061,0.24911 -0.0765,0.23357 -0.0155,-0.0155 -0.0184,0.01 -0.006,0.0558 0.0124,0.0461 -10e-4,0.155 -0.0301,0.24175 -0.0287,0.0867 -0.0573,0.21637 -0.0638,0.28804 -0.006,0.0717 -0.0412,0.23907 -0.0774,0.37199 -0.0361,0.13292 -0.0733,0.30677 -0.0827,0.38633 -0.01,0.0796 -0.0469,0.25626 -0.0835,0.39266 -0.0366,0.1364 -0.0737,0.31309 -0.0825,0.39265 -0.0228,0.20553 -0.0628,0.42195 -0.0842,0.45669 -0.01,0.0162 -0.0289,0.10158 -0.0419,0.18948 -0.013,0.0879 -0.0311,0.18772 -0.0404,0.22181 -0.009,0.0341 -0.0284,0.12709 -0.0427,0.20666 -0.0332,0.18552 -0.0517,0.26866 -0.0597,0.26866 -0.004,0 -0.0126,0.0372 -0.0205,0.0827 -0.0843,0.49464 -0.12168,0.66736 -0.15125,0.70058 -0.0192,0.0216 -0.035,0.0904 -0.035,0.15295 0,0.0625 -0.0202,0.20762 -0.0448,0.3224 l -0.0448,0.2087 h -0.19316 c -0.17128,0 -0.19867,-0.0129 -0.24206,-0.11362 z m 3.87264,0.0375 c 0,-0.0688 0.0491,-0.25034 0.1135,-0.41973 0.013,-0.0341 0.0206,-0.076 0.0169,-0.0933 -0.005,-0.0254 0.0384,-0.24192 0.0943,-0.46468 0.006,-0.0227 0.0236,-0.0971 0.0398,-0.16533 0.0161,-0.0682 0.0476,-0.19838 0.0698,-0.28932 0.051,-0.20869 0.0714,-0.30283 0.14341,-0.66132 0.032,-0.15913 0.075,-0.32652 0.0958,-0.37199 0.0207,-0.0454 0.0593,-0.21179 0.0858,-0.36964 0.0265,-0.15784 0.0605,-0.30664 0.0757,-0.33065 0.0151,-0.0241 0.0334,-0.0902 0.0407,-0.14701 0.0169,-0.13157 0.20382,-0.94772 0.27937,-1.2193 0.0316,-0.11362 0.0691,-0.28106 0.0834,-0.37199 0.0254,-0.16295 0.0848,-0.39547 0.13189,-0.51665 0.0133,-0.0341 0.0211,-0.076 0.0174,-0.0933 -0.005,-0.0254 0.0384,-0.24191 0.0943,-0.46467 0.006,-0.0227 0.0236,-0.0971 0.0398,-0.16532 0.0161,-0.0682 0.0476,-0.1984 0.0698,-0.28933 0.0222,-0.0909 0.0484,-0.20253 0.0582,-0.248 0.038,-0.17644 0.14994,-0.66443 0.16593,-0.72331 0.009,-0.0341 0.0542,-0.22939 0.1,-0.43399 0.0458,-0.20459 0.11213,-0.49288 0.14749,-0.64065 0.0845,-0.35271 0.20675,-0.88558 0.30401,-1.32546 0.043,-0.19479 0.0897,-0.39009 0.10345,-0.434 0.0138,-0.0439 0.064,-0.25652 0.11151,-0.47247 0.0924,-0.42046 0.15058,-0.67784 0.20539,-0.90931 0.0189,-0.0796 0.0645,-0.27486 0.10147,-0.43399 0.037,-0.15912 0.0748,-0.31722 0.0842,-0.35132 0.01,-0.0341 0.0535,-0.22009 0.0979,-0.41332 0.0444,-0.19323 0.11151,-0.48153 0.14894,-0.64066 0.0375,-0.15913 0.1027,-0.44742 0.14503,-0.64064 0.0423,-0.19323 0.0796,-0.35133 0.083,-0.35133 0.004,0 0.0124,-0.031 0.0195,-0.0691 0.051,-0.26348 0.2014,-0.88899 0.2219,-0.9229 0.0138,-0.0227 0.0196,-0.0739 0.013,-0.11362 -0.006,-0.0398 0.004,-0.0723 0.0217,-0.0723 0.0185,-1e-5 0.0392,-0.0877 0.0461,-0.19479 0.007,-0.10716 0.0277,-0.21405 0.046,-0.23763 0.0183,-0.0236 0.0453,-0.11721 0.0598,-0.20818 0.0145,-0.0909 0.0377,-0.20701 0.0517,-0.25795 l 0.0254,-0.0927 -2.08165,-0.0112 -2.08166,-0.0112 v -1.05396 -1.05398 l 3.42604,-0.0112 c 2.38201,-0.007 3.44225,0.002 3.4792,0.0335 0.0367,0.0304 0.0424,0.0786 0.0185,0.15523 -0.0191,0.0612 -0.084,0.33432 -0.14416,0.60712 -0.0602,0.27278 -0.1353,0.59827 -0.16689,0.7233 -0.0316,0.12503 -0.11474,0.47843 -0.18483,0.78531 -0.0701,0.3069 -0.13602,0.59519 -0.14655,0.64065 -0.01,0.0455 -0.0533,0.23147 -0.0951,0.41333 -0.0418,0.18185 -0.086,0.35856 -0.0982,0.39266 -0.0124,0.0341 -0.0444,0.18289 -0.0713,0.33064 -0.0269,0.14777 -0.0656,0.32448 -0.086,0.39266 -0.0203,0.0682 -0.0774,0.30069 -0.12692,0.51666 -0.0495,0.21596 -0.12563,0.52285 -0.16914,0.68198 -0.0754,0.27601 -0.0958,0.38409 -0.11027,0.58603 -0.004,0.0495 -0.0357,0.11933 -0.0714,0.155 -0.0357,0.0357 -0.0481,0.065 -0.0274,0.065 0.0206,0 0.004,0.13484 -0.0377,0.29966 -0.0414,0.16481 -0.0755,0.3404 -0.0759,0.39021 -4e-4,0.0499 -0.0196,0.10221 -0.0427,0.11647 -0.0231,0.0143 -0.0321,0.0419 -0.02,0.0615 0.0124,0.0196 0.002,0.0475 -0.0206,0.062 -0.0234,0.0145 -0.0327,0.0424 -0.0207,0.0619 0.0195,0.0315 -0.0372,0.32888 -0.0945,0.49607 -0.029,0.0847 -0.049,0.16711 -0.0702,0.28932 -0.01,0.0568 -0.036,0.16378 -0.058,0.23765 -0.0221,0.0739 -0.0315,0.13434 -0.021,0.13434 0.0112,0 4e-5,0.0358 -0.0234,0.0798 -0.0234,0.0439 -0.0517,0.1508 -0.0626,0.23766 -0.0269,0.21264 -0.0672,0.39701 -0.0977,0.44727 -0.0138,0.0227 -0.031,0.0878 -0.0381,0.14466 -0.007,0.0568 -0.0588,0.29187 -0.11474,0.52228 -0.0559,0.23041 -0.10171,0.44922 -0.10171,0.48622 0,0.037 -0.0184,0.0996 -0.0408,0.13903 -0.0225,0.0394 -0.0674,0.21126 -0.0996,0.38177 -0.0324,0.17049 -0.0992,0.48668 -0.14865,0.70265 -0.0494,0.21595 -0.0965,0.42526 -0.10469,0.46514 -0.009,0.0399 -0.0267,0.0915 -0.041,0.11486 -0.0144,0.0232 -0.0331,0.0929 -0.0417,0.15484 -0.0169,0.12193 -0.0536,0.29295 -0.17992,0.83581 -0.0449,0.19323 -0.11126,0.49082 -0.14734,0.66131 -0.0361,0.17051 -0.084,0.3423 -0.1063,0.38177 -0.0223,0.0394 -0.0407,0.11424 -0.0407,0.16622 0,0.052 -0.0378,0.22425 -0.0841,0.38288 -0.0463,0.15864 -0.0943,0.37042 -0.10679,0.4706 -0.0125,0.10023 -0.0398,0.22698 -0.0607,0.28174 -0.0208,0.0548 -0.0667,0.23318 -0.10196,0.39649 -0.0352,0.1633 -0.0711,0.32481 -0.0795,0.35891 -0.009,0.0341 -0.0465,0.21079 -0.0848,0.39265 -0.0646,0.30775 -0.0774,0.36389 -0.10047,0.44351 -0.0129,0.0448 -0.12968,0.53696 -0.14723,0.62079 -0.0143,0.0681 0.10469,0.0723 2.03876,0.0729 1.12966,3.5e-4 2.0779,0.0159 2.10721,0.0345 0.0388,0.0247 0.0501,0.13951 0.0413,0.42302 l -0.0124,0.38919 -3.33757,0.0112 c -3.22795,0.01 -3.33759,0.007 -3.33759,-0.0661 z"
       id="path2"
       sodipodi:nodetypes="ccccscccccccssscscsccccssscscssccccscscssssssssscsccccscsssscssssscssccscsccsscssscsscccsscscccssccscssccscscccsccscsccsscscscscscssscccccccccccsscccccccccscccsscccsssscscscsscccccccssccscccsccsscccscsscccccscsscsscsscccccssscccccscccccscccccccssscscccsccscccccsccccsscssccccscccscsccssccsccsccccscccscscscsscscccscscsccccccssccccsccccccccscsscccccccccccccscccsccccccsccscscccscscssccccccccccsssccccscccccsccscccccscccscscscccccscssccscssccscccsccccscscsscccccsscscccccscscsscccscssccccccccscsscscscsccsscsscccsccsscsccscccccscsssssccccccscccccc" /><path
       style="fill:#ffffff;fill-opacity:1;stroke-width:1"
       d="m 154.59734,158.64715 c -0.0129,-0.0208 9.8e-4,-0.13369 0.0311,-0.2509 l 0.0546,-0.21308 3.40638,0.004 c 1.87351,0.002 3.4218,0.0194 3.44065,0.0382 0.0189,0.0189 0.0285,0.12522 0.0215,0.23637 l -0.0129,0.2021 -3.45897,0.0112 c -2.05894,0.006 -3.46845,-0.005 -3.48236,-0.0273 z m -25.74428,-1.22903 c -0.0268,-0.0268 0.12733,-0.27225 0.18672,-0.29743 0.0179,-0.007 0.0325,-0.0358 0.0325,-0.0628 0,-0.0269 0.0835,-0.16025 0.18556,-0.29621 0.10209,-0.13595 0.18576,-0.26888 0.186,-0.2954 2.3e-4,-0.0265 0.0154,-0.0544 0.0336,-0.062 0.037,-0.0153 0.38247,-0.71544 0.47768,-0.96795 0.18288,-0.48498 0.29995,-1.02627 0.38365,-1.77375 0.0417,-0.37282 -0.17566,-1.56312 -0.3548,-1.94262 -0.0867,-0.18363 -0.25698,-0.62389 -0.2638,-0.68198 -0.004,-0.0341 -0.0187,-0.0713 -0.0326,-0.0827 -0.0398,-0.0325 -0.28616,-0.54365 -0.29734,-0.6169 -0.005,-0.0362 -0.0422,-0.11164 -0.0814,-0.16765 -0.0392,-0.0559 -0.0714,-0.12094 -0.0716,-0.14427 -1.4e-4,-0.0233 -0.0279,-0.0955 -0.0618,-0.16045 -0.0339,-0.0649 -0.0495,-0.13751 -0.0347,-0.16138 0.0156,-0.0253 0.007,-0.0311 -0.0208,-0.0139 -0.0263,0.0162 -0.0478,0.009 -0.0478,-0.0165 0,-0.0253 -0.0362,-0.1257 -0.0806,-0.22306 -0.0443,-0.0974 -0.0898,-0.22188 -0.10097,-0.27673 -0.0112,-0.0548 -0.0594,-0.19965 -0.10717,-0.32182 -0.0478,-0.12217 -0.0775,-0.23146 -0.066,-0.24289 0.0112,-0.0112 -0.007,-0.0743 -0.0407,-0.13958 -0.0604,-0.11697 -0.11015,-0.33124 -0.16147,-0.69738 -0.0144,-0.10233 -0.0437,-0.29759 -0.065,-0.43398 -0.0594,-0.3788 -0.0454,-1.39751 0.0254,-1.85995 0.0349,-0.22733 0.0639,-0.44123 0.0646,-0.47532 0.004,-0.16419 0.13422,-0.74398 0.16777,-0.74398 0.021,0 0.028,-0.0163 0.0157,-0.0361 -0.0294,-0.0475 0.0692,-0.45988 0.1099,-0.45988 0.0174,0 0.0315,-0.0363 0.0315,-0.0807 0,-0.0444 0.021,-0.13274 0.0465,-0.19632 0.0256,-0.0636 0.0615,-0.15281 0.0799,-0.19827 0.0184,-0.0455 0.0571,-0.15242 0.0858,-0.23767 0.0288,-0.0852 0.0672,-0.15499 0.0853,-0.15499 0.0181,0 0.033,-0.0329 0.033,-0.0731 0,-0.0402 0.0471,-0.14249 0.10481,-0.22734 0.0577,-0.0848 0.0944,-0.15425 0.0817,-0.15425 -0.0303,0 0.2437,-0.50805 0.39669,-0.73572 0.0657,-0.0977 0.11957,-0.19074 0.11982,-0.20666 2.3e-4,-0.0159 0.0626,-0.0894 0.13872,-0.16325 l 0.13829,-0.13433 1.23557,4.9e-4 c 0.69128,3.5e-4 1.2624,0.0176 1.29649,0.0392 0.0513,0.0324 0.0448,0.0563 -0.0413,0.15098 -0.21669,0.23829 -0.26894,0.2841 -0.30892,0.27078 -0.0227,-0.007 -0.0272,4.3e-4 -0.01,0.0177 0.0174,0.0174 -0.0131,0.0794 -0.0678,0.13778 -0.0547,0.0584 -0.23126,0.28254 -0.39232,0.49806 -0.26038,0.34846 -0.34694,0.48764 -0.57182,0.91961 -0.0323,0.062 -0.0762,0.12355 -0.0975,0.13677 -0.0213,0.0131 -0.0387,0.0502 -0.0387,0.0825 0,0.0321 -0.0558,0.18036 -0.12404,0.32925 -0.0682,0.14891 -0.12404,0.29816 -0.12404,0.33169 0,0.0335 -0.0148,0.0609 -0.0329,0.0609 -0.018,0 -0.0577,0.11201 -0.0881,0.24886 -0.0304,0.13688 -0.0714,0.25887 -0.0912,0.27111 -0.0197,0.0124 -0.036,0.0769 -0.036,0.14379 0,0.0669 -0.018,0.12155 -0.0401,0.12155 -0.022,0 -0.0297,0.0272 -0.0169,0.0603 0.0128,0.0332 0.001,0.15873 -0.0253,0.279 -0.0605,0.27325 -0.12923,0.93036 -0.12883,1.2313 7.2e-4,0.53566 0.14302,1.41983 0.27711,1.72152 0.0319,0.0716 0.0581,0.15534 0.0582,0.186 1.4e-4,0.0306 0.0252,0.10345 0.0556,0.16183 0.0509,0.0976 0.10556,0.26342 0.13385,0.40644 0.006,0.0319 0.0286,0.069 0.0497,0.0826 0.0211,0.0136 0.064,0.0992 0.0955,0.19013 0.0315,0.0909 0.0671,0.17463 0.079,0.186 0.0504,0.0479 0.12255,0.25722 0.10084,0.29242 -0.013,0.0211 -0.006,0.0382 0.0154,0.0382 0.0388,0 0.0817,0.0803 0.25376,0.47532 0.0495,0.11362 0.11659,0.26527 0.14903,0.33691 0.0325,0.0716 0.059,0.1424 0.059,0.15726 0,0.0149 0.0358,0.10568 0.0796,0.20184 0.0438,0.0961 0.0929,0.22999 0.10903,0.2974 0.0161,0.0673 0.0433,0.14116 0.0603,0.16389 0.0297,0.0398 0.0922,0.28556 0.0841,0.3304 -0.002,0.0124 0.0248,0.0774 0.0599,0.14536 0.0351,0.068 0.0561,0.12354 0.0465,0.12354 -0.01,0 -4.7e-4,0.0697 0.0202,0.155 0.0207,0.0852 0.0468,0.25729 0.0579,0.38232 0.0112,0.12503 0.0368,0.37279 0.0572,0.55056 0.0207,0.18154 0.0216,0.44522 0.002,0.60152 -0.0192,0.15306 -0.0381,0.361 -0.0419,0.46208 -0.006,0.15774 -0.0512,0.51487 -0.10171,0.80378 -0.0127,0.0724 -0.12441,0.54814 -0.15533,0.66131 -0.006,0.0227 -0.0231,0.06 -0.0373,0.083 -0.0144,0.0229 -0.0391,0.11114 -0.0551,0.19597 -0.0159,0.0848 -0.0438,0.14515 -0.0619,0.13396 -0.0181,-0.0112 -0.0238,0.0148 -0.0125,0.0577 0.0112,0.0429 1.8e-4,0.0905 -0.0246,0.1058 -0.0247,0.0153 -0.0449,0.0581 -0.0449,0.0949 0,0.037 -0.0396,0.1521 -0.0881,0.25589 -0.0484,0.10382 -0.13549,0.29101 -0.19349,0.41604 -0.0581,0.12503 -0.14055,0.27848 -0.18345,0.34099 l -0.078,0.11362 h -1.20961 c -0.66528,0 -1.22144,-0.0124 -1.23593,-0.0263 z m 8.05166,-0.002 c -0.46032,-0.0619 -0.95815,-0.29924 -1.28005,-0.61021 -0.20577,-0.19877 -0.42319,-0.52673 -0.44826,-0.67615 -0.006,-0.0383 -0.0334,-0.10916 -0.06,-0.15743 -0.0897,-0.16303 -0.12906,-0.44688 -0.15687,-1.13154 -0.0153,-0.37509 -0.036,-0.69593 -0.046,-0.71299 -0.01,-0.0171 -0.34763,-0.031 -0.75011,-0.031 h -0.73179 l -0.0716,-0.16531 c -0.0393,-0.0909 -0.0903,-0.16533 -0.11312,-0.16533 -0.0228,0 -0.0414,-0.0192 -0.0414,-0.0427 0,-0.0234 -0.0837,-0.16971 -0.18598,-0.325 -0.10233,-0.15528 -0.186,-0.30192 -0.186,-0.32587 0,-0.0239 -0.014,-0.0497 -0.031,-0.0573 -0.0408,-0.0181 -0.21673,-0.26982 -0.21791,-0.31176 -4.8e-4,-0.018 -0.0373,-0.0791 -0.0817,-0.13601 -0.16326,-0.20871 -0.17493,-0.20666 1.17797,-0.20666 h 1.26063 v -5.53024 c 0,-4.2462 0.0112,-5.54176 0.0496,-5.57984 0.0375,-0.0375 0.673,-0.0496 2.60689,-0.0496 2.1777,0 2.56616,0.009 2.61715,0.0599 0.0493,0.0492 0.0579,0.21586 0.0487,0.94031 l -0.0112,0.88043 -1.63262,0.0207 -1.63262,0.0206 -0.01,4.6184 -0.01,4.6184 1.64313,0.0112 1.64312,0.0112 v 0.8473 0.8473 l -1.6326,0.0206 -1.63263,0.0206 -0.0136,0.33067 c -0.0177,0.4301 0.0559,0.85316 0.17194,0.98679 l 0.0897,0.10333 1.48734,0.004 c 0.81805,0.002 1.50195,0.0186 1.51979,0.0365 0.0179,0.0179 0.0274,0.44032 0.0213,0.93884 l -0.0112,0.90642 -1.61195,0.005 c -0.88657,0.002 -1.66775,-0.002 -1.73595,-0.0124 z m 3.98855,-0.0954 c 0,-0.0682 0.0197,-0.12404 0.0438,-0.12404 0.0241,0 0.0347,-0.0145 0.0238,-0.0323 -0.0208,-0.0336 0.39376,-1.69692 0.44263,-1.776 0.0154,-0.0248 0.0355,-0.0977 0.0447,-0.1621 0.009,-0.0643 0.0356,-0.17738 0.0587,-0.25126 0.0231,-0.0739 0.0332,-0.13432 0.0227,-0.13432 -0.0112,0 0.001,-0.0391 0.0272,-0.0867 0.0255,-0.0477 0.0542,-0.14979 0.0638,-0.22688 0.01,-0.0771 0.0432,-0.21941 0.0748,-0.31627 0.0315,-0.0969 0.0804,-0.27842 0.10841,-0.40345 0.028,-0.12503 0.062,-0.24593 0.0754,-0.26865 0.0134,-0.0227 0.0278,-0.0639 0.032,-0.0915 0.0263,-0.17275 0.15848,-0.67314 0.17792,-0.67319 0.0129,-4e-5 0.0288,-0.0768 0.0352,-0.17064 0.006,-0.0938 0.0306,-0.20589 0.0537,-0.24903 0.0231,-0.0432 0.077,-0.2314 0.11995,-0.41835 0.1218,-0.53114 0.23743,-0.9703 0.26898,-1.02133 0.0159,-0.0257 0.0342,-0.0874 0.0408,-0.13723 0.0124,-0.092 0.0298,-0.16308 0.18554,-0.75196 0.0481,-0.18185 0.10593,-0.40283 0.12844,-0.49104 0.0438,-0.17151 0.0211,-0.50378 -0.0398,-0.57917 -0.0202,-0.0252 -0.0594,-0.15735 -0.0871,-0.29375 -0.0275,-0.13639 -0.0649,-0.28519 -0.083,-0.33065 -0.018,-0.0454 -0.0553,-0.19427 -0.0827,-0.33066 -0.0275,-0.13639 -0.0657,-0.28519 -0.085,-0.33066 -0.0461,-0.10891 -0.37614,-1.42285 -0.38414,-1.52929 -0.004,-0.0455 -0.0159,-0.0919 -0.0277,-0.10333 -0.0237,-0.0228 -0.0975,-0.27132 -0.18431,-0.61998 -0.0311,-0.12503 -0.0857,-0.32963 -0.1213,-0.45466 -0.0356,-0.12503 -0.0649,-0.26942 -0.0651,-0.32088 -2.8e-4,-0.0515 -0.0181,-0.12585 -0.0397,-0.16532 -0.0216,-0.0396 -0.0696,-0.19267 -0.10667,-0.34044 -0.0371,-0.14776 -0.0866,-0.34305 -0.11015,-0.43399 -0.0236,-0.0909 -0.0486,-0.21071 -0.0559,-0.26619 -0.007,-0.0555 -0.031,-0.13917 -0.0527,-0.18598 -0.0635,-0.13663 -0.13902,-0.44255 -0.11511,-0.4664 0.0124,-0.0124 -0.002,-0.0707 -0.0334,-0.1303 -0.0304,-0.0597 -0.0858,-0.24793 -0.12329,-0.41842 -0.0373,-0.1705 -0.0841,-0.34719 -0.10382,-0.39265 -0.0619,-0.14265 -0.12685,-0.51198 -0.10159,-0.57774 0.0206,-0.0537 0.15759,-0.0628 0.93937,-0.0623 0.50337,3.6e-4 0.93871,0.0156 0.96742,0.0337 0.062,0.0395 0.22872,0.61497 0.19421,0.67082 -0.0131,0.0213 -0.002,0.0387 0.0233,0.0387 0.0259,0 0.0394,0.0233 0.03,0.0517 -0.01,0.0284 0.0155,0.12606 0.0556,0.21699 0.0401,0.0909 0.0832,0.25512 0.096,0.36485 0.0128,0.10977 0.0368,0.22133 0.0535,0.248 0.0166,0.0267 0.035,0.0671 0.0407,0.0898 0.006,0.0227 0.0381,0.14364 0.0721,0.26867 0.0608,0.22411 0.19505,0.73122 0.27901,1.05396 0.0237,0.0909 0.0484,0.20612 0.0551,0.25597 0.006,0.0499 0.0257,0.11263 0.0423,0.13949 0.0166,0.0268 0.0636,0.19067 0.10444,0.36402 0.0408,0.17334 0.10407,0.42269 0.14066,0.55414 0.0366,0.13143 0.0561,0.25569 0.0434,0.27613 -0.0127,0.0205 -0.006,0.0473 0.0134,0.0597 0.02,0.0124 0.0775,-0.13977 0.12786,-0.33812 0.0504,-0.19837 0.11734,-0.45365 0.14885,-0.56731 0.0315,-0.11361 0.0688,-0.26245 0.083,-0.33066 0.014,-0.0682 0.0361,-0.15189 0.049,-0.18599 0.0389,-0.10283 0.0478,-0.13482 0.10804,-0.39266 0.0319,-0.13639 0.0964,-0.38748 0.14318,-0.55798 0.0469,-0.17049 0.0944,-0.36083 0.10568,-0.42297 0.0112,-0.0622 0.0327,-0.13295 0.0479,-0.15736 0.015,-0.0244 0.0329,-0.0852 0.0394,-0.13501 0.006,-0.0499 0.0316,-0.16504 0.0556,-0.25597 0.0239,-0.0909 0.0733,-0.29552 0.10977,-0.45465 0.0365,-0.15913 0.0817,-0.31794 0.10072,-0.35291 0.019,-0.035 0.0484,-0.14625 0.0655,-0.24728 0.0171,-0.10109 0.0613,-0.20668 0.0981,-0.23476 0.0706,-0.0537 1.75031,-0.0793 1.8823,-0.0285 0.0743,0.0285 0.0852,0.14985 0.0239,0.26433 -0.0228,0.0425 -0.0507,0.15195 -0.0623,0.24316 -0.0112,0.0912 -0.0388,0.2133 -0.0609,0.27129 -0.0221,0.0581 -0.0308,0.10543 -0.0193,0.10543 0.0112,0 -0.007,0.0535 -0.0407,0.1187 -0.0337,0.0654 -0.0536,0.12663 -0.0439,0.13626 0.01,0.01 -0.0112,0.11895 -0.0455,0.24289 -0.0346,0.12392 -0.0899,0.33701 -0.12292,0.47341 -0.0329,0.13639 -0.0767,0.28518 -0.0971,0.33066 -0.0205,0.0455 -0.0577,0.18495 -0.0826,0.30998 -0.0249,0.12503 -0.0925,0.40403 -0.15016,0.61998 -0.0577,0.21596 -0.14361,0.55075 -0.19104,0.74398 -0.0475,0.19323 -0.10246,0.35757 -0.12243,0.36519 -0.0198,0.007 -0.0264,0.0295 -0.0146,0.0487 0.0288,0.0465 -0.0576,0.40459 -0.13183,0.54713 -0.0326,0.0625 -0.0497,0.12916 -0.0381,0.14799 0.0112,0.0189 -0.006,0.13504 -0.0409,0.25824 -0.16057,0.57941 -0.18214,0.66734 -0.18214,0.74268 0,0.0444 -0.015,0.0806 -0.0335,0.0806 -0.0184,0 -0.0553,0.11623 -0.082,0.25832 -0.0267,0.14209 -0.0553,0.27693 -0.0636,0.29967 -0.009,0.0227 -0.0252,0.0692 -0.0376,0.10332 -0.0124,0.0341 -0.0453,0.1736 -0.0729,0.31 -0.0278,0.13639 -0.0688,0.28285 -0.0913,0.32546 -0.0224,0.0426 -0.0455,0.11697 -0.0512,0.16533 -0.0243,0.20548 -0.12106,0.56317 -0.15221,0.56317 -0.0186,0 -0.0133,0.0511 0.0112,0.11362 0.025,0.0625 0.0602,0.15087 0.0779,0.19633 0.0456,0.11672 0.15995,0.5783 0.20983,0.8473 0.0232,0.12503 0.0594,0.26454 0.0804,0.31 0.0211,0.0455 0.0653,0.19426 0.0981,0.33066 0.0329,0.13639 0.0882,0.34943 0.12292,0.47339 0.0346,0.12404 0.0552,0.23328 0.0455,0.24291 -0.01,0.01 0.01,0.0709 0.0439,0.13624 0.0337,0.0654 0.0525,0.1187 0.0417,0.1187 -0.0112,0 0.006,0.0866 0.0381,0.19237 0.0319,0.10581 0.0559,0.20345 0.0535,0.217 -0.002,0.0135 0.007,0.0525 0.0221,0.0866 0.0146,0.0341 0.0633,0.2108 0.10803,0.39265 0.11834,0.47949 0.40091,1.57494 0.47404,1.83737 0.0346,0.12403 0.0548,0.23336 0.0451,0.24308 -0.01,0.01 10e-4,0.0537 0.0251,0.0976 0.0464,0.0867 0.0527,0.10779 0.1337,0.44654 0.0299,0.12503 0.0645,0.25522 0.0769,0.28932 0.0124,0.0341 0.0455,0.1643 0.0733,0.28933 0.0279,0.12503 0.0767,0.30657 0.10816,0.40345 0.0316,0.0969 0.0652,0.23918 0.0748,0.31627 0.01,0.0771 0.0376,0.17797 0.0623,0.22416 0.0247,0.0461 0.0449,0.14101 0.0449,0.21071 v 0.1267 h -0.97231 -0.97233 l -0.0402,-0.1058 c -0.0221,-0.0582 -0.0487,-0.16514 -0.0593,-0.23766 -0.01,-0.0726 -0.0475,-0.21054 -0.0822,-0.30667 -0.0347,-0.0961 -0.0711,-0.23848 -0.0807,-0.31629 -0.01,-0.0778 -0.0384,-0.1805 -0.064,-0.22819 -0.0255,-0.0476 -0.0377,-0.0867 -0.0272,-0.0867 0.0112,0 3.9e-4,-0.0604 -0.0227,-0.13434 -0.0231,-0.0739 -0.0496,-0.18815 -0.059,-0.25395 -0.01,-0.0657 -0.0331,-0.14019 -0.0528,-0.16533 -0.0196,-0.0252 -0.0491,-0.12007 -0.0655,-0.21103 -0.0164,-0.0909 -0.035,-0.19323 -0.0413,-0.22732 -0.006,-0.0341 -0.0234,-0.0945 -0.0378,-0.13434 -0.0552,-0.15129 -0.0773,-0.22793 -0.17305,-0.60337 -0.0542,-0.2125 -0.0963,-0.39851 -0.0934,-0.41332 0.002,-0.0149 -0.006,-0.0548 -0.0208,-0.0889 -0.0144,-0.0341 -0.0831,-0.27417 -0.15281,-0.53347 -0.17348,-0.64553 -0.18218,-0.65451 -0.27071,-0.279 -0.0411,0.17407 -0.0892,0.31649 -0.10704,0.31649 -0.0179,0 -0.0227,0.0254 -0.0112,0.0564 0.0124,0.0311 -0.0189,0.17522 -0.0683,0.32033 -0.0495,0.14513 -0.0935,0.29175 -0.0977,0.32585 -0.0293,0.23493 -0.0785,0.45466 -0.10184,0.45466 -0.0153,0 -0.0523,0.13484 -0.0825,0.29965 -0.0301,0.16483 -0.0683,0.31826 -0.0848,0.341 -0.0165,0.0227 -0.0538,0.15292 -0.0829,0.28932 -0.029,0.1364 -0.0641,0.26659 -0.0779,0.28933 -0.0138,0.0227 -0.0308,0.0785 -0.0377,0.12404 -0.0112,0.0749 -0.15264,0.64006 -0.27103,1.08496 -0.0257,0.0966 -0.0592,0.17567 -0.0744,0.17567 -0.0152,0 -0.0268,0.0232 -0.0258,0.0517 0.007,0.20703 0.0624,0.19631 -1.00308,0.19631 h -0.99197 z m 10.09763,0.01 c -0.0269,-0.0625 -0.0688,-0.23457 -0.0931,-0.38233 -0.0243,-0.14776 -0.0618,-0.33376 -0.0831,-0.41333 -0.0419,-0.15569 -0.15984,-0.73051 -0.18964,-0.92478 -0.01,-0.0654 -0.0381,-0.19277 -0.0625,-0.28317 -0.0243,-0.0904 -0.035,-0.17369 -0.0236,-0.18508 0.0112,-0.0112 0.001,-0.07 -0.0217,-0.13017 -0.0233,-0.0602 -0.0504,-0.15592 -0.0599,-0.21274 -0.01,-0.0568 -0.0378,-0.19269 -0.0629,-0.30189 -0.025,-0.10916 -0.0347,-0.20931 -0.0216,-0.22243 0.0132,-0.0131 0.005,-0.0585 -0.0174,-0.10097 -0.0389,-0.0728 -0.18206,-0.71823 -0.30966,-1.39659 -0.0318,-0.16859 -0.0757,-0.36389 -0.0977,-0.43399 -0.022,-0.0701 -0.0516,-0.21115 -0.0656,-0.31344 -0.014,-0.10233 -0.0295,-0.21389 -0.0344,-0.24799 -0.005,-0.0341 -0.0202,-0.0806 -0.034,-0.10332 -0.0253,-0.0418 -0.0621,-0.24085 -0.098,-0.52993 -0.0112,-0.0868 -0.0355,-0.18917 -0.0551,-0.22733 -0.0315,-0.0616 -0.0485,-0.15202 -0.11201,-0.59791 -0.009,-0.0634 -0.0367,-0.15331 -0.0617,-0.19988 -0.0249,-0.0465 -0.0366,-0.0934 -0.0258,-0.10406 0.0112,-0.0112 -0.007,-0.12268 -0.0404,-0.2489 -0.033,-0.12618 -0.0507,-0.23862 -0.0395,-0.24989 0.0112,-0.0112 0.001,-0.0697 -0.0219,-0.12989 -0.0233,-0.0602 -0.0506,-0.15592 -0.0604,-0.21275 -0.0384,-0.22158 -0.10928,-0.56942 -0.16564,-0.81297 -0.0325,-0.14024 -0.0672,-0.32623 -0.0773,-0.41332 -0.01,-0.0871 -0.0474,-0.26565 -0.0831,-0.39684 -0.0357,-0.13117 -0.0733,-0.30786 -0.0836,-0.39265 -0.01,-0.0847 -0.0549,-0.29939 -0.0992,-0.4769 -0.0443,-0.17751 -0.088,-0.38211 -0.097,-0.45465 -0.009,-0.0726 -0.0275,-0.15981 -0.0412,-0.19391 -0.0433,-0.10878 -0.11523,-0.50732 -0.0953,-0.52736 0.0112,-0.0112 -0.006,-0.087 -0.0373,-0.16964 -0.0492,-0.1306 -0.10394,-0.40383 -0.12708,-0.63424 -0.004,-0.0388 -0.0268,-0.12255 -0.0507,-0.18601 -0.0427,-0.11262 -0.0913,-0.37009 -0.11387,-0.60363 -0.006,-0.0639 -0.0298,-0.16624 -0.0523,-0.22732 -0.0226,-0.061 -0.0636,-0.25056 -0.0912,-0.42105 -0.0275,-0.1705 -0.0657,-0.3658 -0.085,-0.434 -0.0192,-0.0682 -0.0633,-0.27278 -0.0979,-0.45465 -0.0347,-0.18186 -0.10134,-0.50735 -0.14818,-0.72331 -0.19446,-0.89716 -0.25863,-1.22625 -0.26315,-1.34965 -0.002,-0.0717 -0.0168,-0.12305 -0.0313,-0.11399 -0.0146,0.009 -0.0461,-0.0997 -0.0702,-0.24165 -0.0241,-0.14189 -0.0639,-0.36027 -0.0886,-0.4853 -0.0246,-0.12503 -0.0547,-0.30128 -0.0669,-0.39167 -0.0124,-0.0904 -0.0408,-0.187 -0.0639,-0.21471 -0.0231,-0.0278 -0.0357,-0.0933 -0.0283,-0.14567 l 0.0135,-0.0953 0.88864,-0.0125 c 0.48876,-0.007 0.98467,-9.7e-4 1.10205,0.0129 l 0.21341,0.0253 0.0611,0.29713 c 0.0337,0.16342 0.13023,0.65982 0.21458,1.10311 0.0844,0.44329 0.19667,1.02917 0.24957,1.30197 0.11709,0.60394 0.42001,2.1925 0.44528,2.33526 0.01,0.0568 0.0485,0.25214 0.0853,0.43399 0.16957,0.83678 0.24566,1.22479 0.4214,2.14927 0.10369,0.54559 0.22454,1.17159 0.26851,1.39112 0.0439,0.21954 0.08,0.44118 0.08,0.49255 0,0.187 0.0375,0.0496 0.0575,-0.21097 0.0112,-0.14707 0.0494,-0.3604 0.0844,-0.47406 0.0351,-0.11362 0.0646,-0.27177 0.0657,-0.35132 9.7e-4,-0.0795 0.031,-0.25627 0.0666,-0.39266 0.0356,-0.13639 0.0727,-0.3131 0.0824,-0.39265 0.0301,-0.2472 0.10878,-0.63768 0.14133,-0.70266 0.0171,-0.0341 0.0421,-0.18289 0.0556,-0.33066 0.0134,-0.14775 0.0525,-0.35996 0.0867,-0.47155 0.0342,-0.11164 0.0623,-0.26193 0.0623,-0.3341 0,-0.0722 0.0124,-0.1435 0.0273,-0.15852 0.015,-0.015 0.0316,-0.0786 0.037,-0.14123 0.0141,-0.16569 0.17273,-0.998 0.22328,-1.17144 0.0237,-0.0815 0.0516,-0.24861 0.0618,-0.37131 0.01,-0.12267 0.0382,-0.22961 0.0621,-0.23761 0.0239,-0.007 0.0341,-0.03 0.0225,-0.0489 -0.0112,-0.0188 0.005,-0.14634 0.0368,-0.28318 0.032,-0.13685 0.0502,-0.25659 0.0408,-0.26612 -0.0194,-0.0192 0.0863,-0.49729 0.12305,-0.5566 0.0129,-0.0207 0.0269,-0.11051 0.0311,-0.19951 0.005,-0.0889 0.0349,-0.27337 0.068,-0.40977 0.0331,-0.1364 0.0681,-0.31309 0.0778,-0.39266 0.0301,-0.24682 0.10865,-0.63763 0.14129,-0.70264 0.0171,-0.0341 0.0423,-0.1922 0.0562,-0.35132 0.0138,-0.15913 0.0424,-0.29519 0.0637,-0.30233 0.0213,-0.007 0.029,-0.0382 0.0171,-0.0691 -0.0124,-0.0309 -9.7e-4,-0.0948 0.0244,-0.142 0.0435,-0.0813 0.0803,-0.086 0.68516,-0.086 h 0.6392 v 1.23997 1.23997 l 0.17567,4.9e-4 c 0.28579,9.6e-4 0.30286,0.028 0.22596,0.35715 -0.0364,0.15558 -0.0891,0.39446 -0.11709,0.53085 -0.028,0.1364 -0.0553,0.26659 -0.0604,0.28933 -0.11002,0.48608 -0.3118,1.50203 -0.41055,2.06661 -0.0357,0.20459 -0.0832,0.41555 -0.10544,0.46882 -0.0222,0.0532 -0.049,0.16486 -0.0595,0.24799 -0.01,0.0831 -0.0387,0.24416 -0.0628,0.35782 -0.0239,0.11362 -0.0716,0.35546 -0.10556,0.53732 -0.0341,0.18187 -0.079,0.38646 -0.0999,0.45465 -0.0208,0.0682 -0.0682,0.2821 -0.1053,0.47533 -0.0691,0.36024 -0.18707,0.92911 -0.29144,1.40529 -0.0324,0.14776 -0.0947,0.45466 -0.13842,0.68198 -0.10245,0.53241 -0.10493,0.54484 -0.20516,1.0333 -0.0466,0.22733 -0.11386,0.56212 -0.14922,0.74399 -0.0355,0.18186 -0.0841,0.39269 -0.10828,0.46851 -0.0242,0.0758 -0.0526,0.21533 -0.0633,0.31 -0.0112,0.0946 -0.0382,0.24652 -0.0613,0.33746 -0.0231,0.0909 -0.0637,0.28315 -0.0904,0.42715 -0.0265,0.14401 -0.061,0.24911 -0.0765,0.23357 -0.0155,-0.0155 -0.0184,0.01 -0.006,0.0558 0.0124,0.0461 -0.001,0.155 -0.0301,0.24175 -0.0287,0.0867 -0.0573,0.21637 -0.0638,0.28804 -0.006,0.0717 -0.0412,0.23907 -0.0774,0.37199 -0.0361,0.13292 -0.0733,0.30677 -0.0827,0.38633 -0.01,0.0796 -0.0469,0.25626 -0.0835,0.39266 -0.0366,0.1364 -0.0737,0.31309 -0.0825,0.39265 -0.0228,0.20553 -0.0628,0.42195 -0.0842,0.45669 -0.01,0.0162 -0.0289,0.10158 -0.0419,0.18948 -0.013,0.0879 -0.0311,0.18772 -0.0404,0.22181 -0.009,0.0341 -0.0284,0.12709 -0.0427,0.20666 -0.0332,0.18552 -0.0517,0.26866 -0.0597,0.26866 -0.004,0 -0.0126,0.0372 -0.0205,0.0827 -0.0843,0.49464 -0.12168,0.66736 -0.15125,0.70058 -0.0192,0.0216 -0.035,0.0904 -0.035,0.15295 0,0.0625 -0.0202,0.20762 -0.0448,0.3224 l -0.0448,0.2087 h -0.19316 c -0.17128,0 -0.19867,-0.0129 -0.24206,-0.11362 z m 3.87264,0.0375 c 0,-0.0688 0.0491,-0.25034 0.1135,-0.41973 0.013,-0.0341 0.0206,-0.076 0.0169,-0.0933 -0.005,-0.0254 0.0384,-0.24192 0.0943,-0.46468 0.006,-0.0227 0.0236,-0.0971 0.0398,-0.16533 0.0161,-0.0682 0.0476,-0.19838 0.0698,-0.28932 0.051,-0.20869 0.0714,-0.30283 0.14341,-0.66132 0.032,-0.15913 0.075,-0.32652 0.0958,-0.37199 0.0207,-0.0454 0.0593,-0.21179 0.0858,-0.36964 0.0265,-0.15784 0.0605,-0.30664 0.0757,-0.33065 0.0151,-0.0241 0.0334,-0.0902 0.0407,-0.14701 0.0169,-0.13157 0.20382,-0.94772 0.27937,-1.2193 0.0316,-0.11362 0.0691,-0.28106 0.0834,-0.37199 0.0254,-0.16295 0.0848,-0.39547 0.13189,-0.51665 0.0133,-0.0341 0.0211,-0.076 0.0174,-0.0933 -0.005,-0.0254 0.0384,-0.24191 0.0943,-0.46467 0.006,-0.0227 0.0236,-0.0971 0.0398,-0.16532 0.0161,-0.0682 0.0476,-0.1984 0.0698,-0.28933 0.0222,-0.0909 0.0484,-0.20253 0.0582,-0.248 0.038,-0.17644 0.14994,-0.66443 0.16593,-0.72331 0.009,-0.0341 0.0542,-0.22939 0.1,-0.43399 0.0458,-0.20459 0.11213,-0.49288 0.14749,-0.64065 0.0845,-0.35271 0.20675,-0.88558 0.30401,-1.32546 0.043,-0.19479 0.0897,-0.39009 0.10345,-0.434 0.0138,-0.0439 0.064,-0.25652 0.11151,-0.47247 0.0924,-0.42046 0.15058,-0.67784 0.20539,-0.90931 0.0189,-0.0796 0.0645,-0.27486 0.10147,-0.43399 0.037,-0.15912 0.0748,-0.31722 0.0842,-0.35132 0.01,-0.0341 0.0535,-0.22009 0.0979,-0.41332 0.0444,-0.19323 0.11151,-0.48153 0.14894,-0.64066 0.0375,-0.15913 0.1027,-0.44742 0.14503,-0.64064 0.0423,-0.19323 0.0796,-0.35133 0.083,-0.35133 0.004,0 0.0124,-0.031 0.0195,-0.0691 0.051,-0.26348 0.2014,-0.88899 0.2219,-0.9229 0.0138,-0.0227 0.0196,-0.0739 0.013,-0.11362 -0.006,-0.0398 0.004,-0.0723 0.0217,-0.0723 0.0185,-10e-6 0.0392,-0.0877 0.0461,-0.19479 0.007,-0.10716 0.0277,-0.21405 0.046,-0.23763 0.0183,-0.0236 0.0453,-0.11721 0.0598,-0.20818 0.0145,-0.0909 0.0377,-0.20701 0.0517,-0.25795 l 0.0254,-0.0927 -2.08165,-0.0112 -2.08166,-0.0112 v -1.05396 -1.05398 l 3.42604,-0.0112 c 2.38201,-0.007 3.44225,0.002 3.4792,0.0335 0.0367,0.0304 0.0424,0.0786 0.0185,0.15523 -0.0191,0.0612 -0.084,0.33432 -0.14416,0.60712 -0.0602,0.27278 -0.1353,0.59827 -0.16689,0.7233 -0.0316,0.12503 -0.11474,0.47843 -0.18483,0.78531 -0.0701,0.3069 -0.13602,0.59519 -0.14655,0.64065 -0.01,0.0455 -0.0533,0.23147 -0.0951,0.41333 -0.0418,0.18185 -0.086,0.35856 -0.0982,0.39266 -0.0124,0.0341 -0.0444,0.18289 -0.0713,0.33064 -0.0269,0.14777 -0.0656,0.32448 -0.086,0.39266 -0.0203,0.0682 -0.0774,0.30069 -0.12692,0.51666 -0.0495,0.21596 -0.12563,0.52285 -0.16914,0.68198 -0.0754,0.27601 -0.0958,0.38409 -0.11027,0.58603 -0.004,0.0495 -0.0357,0.11933 -0.0714,0.155 -0.0357,0.0357 -0.0481,0.065 -0.0274,0.065 0.0206,0 0.004,0.13484 -0.0377,0.29966 -0.0414,0.16481 -0.0755,0.3404 -0.0759,0.39021 -4e-4,0.0499 -0.0196,0.10221 -0.0427,0.11647 -0.0231,0.0143 -0.0321,0.0419 -0.02,0.0615 0.0124,0.0196 0.002,0.0475 -0.0206,0.062 -0.0234,0.0145 -0.0327,0.0424 -0.0207,0.0619 0.0195,0.0315 -0.0372,0.32888 -0.0945,0.49607 -0.029,0.0847 -0.049,0.16711 -0.0702,0.28932 -0.01,0.0568 -0.036,0.16378 -0.058,0.23765 -0.0221,0.0739 -0.0315,0.13434 -0.021,0.13434 0.0112,0 4e-5,0.0358 -0.0234,0.0798 -0.0234,0.0439 -0.0517,0.1508 -0.0626,0.23766 -0.0269,0.21264 -0.0672,0.39701 -0.0977,0.44727 -0.0138,0.0227 -0.031,0.0878 -0.0381,0.14466 -0.007,0.0568 -0.0588,0.29187 -0.11474,0.52228 -0.0559,0.23041 -0.10171,0.44922 -0.10171,0.48622 0,0.037 -0.0184,0.0996 -0.0408,0.13903 -0.0225,0.0394 -0.0674,0.21126 -0.0996,0.38177 -0.0324,0.17049 -0.0992,0.48668 -0.14865,0.70265 -0.0494,0.21595 -0.0965,0.42526 -0.10469,0.46514 -0.009,0.0399 -0.0267,0.0915 -0.041,0.11486 -0.0144,0.0232 -0.0331,0.0929 -0.0417,0.15484 -0.0169,0.12193 -0.0536,0.29295 -0.17992,0.83581 -0.0449,0.19323 -0.11126,0.49082 -0.14734,0.66131 -0.0361,0.17051 -0.084,0.3423 -0.1063,0.38177 -0.0223,0.0394 -0.0407,0.11424 -0.0407,0.16622 0,0.052 -0.0378,0.22425 -0.0841,0.38288 -0.0463,0.15864 -0.0943,0.37042 -0.10679,0.4706 -0.0125,0.10023 -0.0398,0.22698 -0.0607,0.28174 -0.0208,0.0548 -0.0667,0.23318 -0.10196,0.39649 -0.0352,0.1633 -0.0711,0.32481 -0.0795,0.35891 -0.009,0.0341 -0.0465,0.21079 -0.0848,0.39265 -0.0646,0.30775 -0.0774,0.36389 -0.10047,0.44351 -0.0129,0.0448 -0.12968,0.53696 -0.14723,0.62079 -0.0143,0.0681 0.10469,0.0723 2.03876,0.0729 1.12966,3.5e-4 2.0779,0.0159 2.10721,0.0345 0.0388,0.0247 0.0501,0.13951 0.0413,0.42302 l -0.0124,0.38919 -3.33757,0.0112 c -3.22795,0.01 -3.33759,0.007 -3.33759,-0.0661 z"
       id="path1"
       sodipodi:nodetypes="ccccscccccccssscscsccccssscscssccccscscssssssssscsccccscsssscssssscssccscsccsscssscsscccsscscccssccscssccscscccsccscsccsscscscscscssscccccccccccsscccccccccscccsscccsssscscscsscccccccssccscccsccsscccscsscccccscsscsscsscccccssscccccscccccscccccccssscscccsccscccccsccccsscssccccscccscsccssccsccsccccscccscscscsscscccscscsccccccssccccsccccccccscsscccccccccccccscccsccccccsccscscccscscssccccccccccsssccccscccccsccscccccscccscscscccccscssccscssccscccsccccscscsscccccsscscccccscscsscccscssccccccccscsscscscsccsscsscccsccsscsccscccccscsssssccccccscccccc" /></g></svg>
